<?xml version="1.0" encoding="UTF-8"?>
<!DOCTYPE svg PUBLIC "-//W3C//DTD SVG 1.1//EN" "http://www.w3.org/Graphics/SVG/1.1/DTD/svg11.dtd">
<svg xmlns="http://www.w3.org/2000/svg" version="1.1" width="444px" height="134px" style="shape-rendering:geometricPrecision; text-rendering:geometricPrecision; image-rendering:optimizeQuality; fill-rule:evenodd; clip-rule:evenodd" xmlns:xlink="http://www.w3.org/1999/xlink">

  <!-- 背景透過：白い背景 <g> は削除 -->

  <g><path style="opacity:1" fill="#074d57" d="M 52.5,14.5 C 71.7312,12.7189 88.7312,17.8856 103.5,30C 98.9657,34.1994 94.799,38.6994 91,43.5C 80.0963,33.3151 67.263,29.8151 52.5,33C 33.4624,40.2243 24.9624,54.0577 27,74.5C 34.1494,99.0007 50.316,108.501 75.5,103C 78,102.115 80.3333,100.948 82.5,99.5C 83.4987,88.8541 83.832,78.1874 83.5,67.5C 89.5,67.5 95.5,67.5 101.5,67.5C 101.667,81.1707 101.5,94.8374 101,108.5C 79.1455,123.334 56.3122,125.167 32.5,114C 9.44616,97.1405 2.2795,74.9739 11,47.5C 19.4214,29.5673 33.2547,18.5673 52.5,14.5 Z"/></g>
  <g><path style="opacity:1" fill="#084d58" d="M 278.5,14.5 C 298.363,12.0553 315.363,17.722 329.5,31.5C 326.51,36.3232 322.677,40.3232 318,43.5C 306.076,32.5918 292.243,29.4251 276.5,34C 256.31,44.5575 249.81,60.7242 257,82.5C 266.284,101.051 281.117,107.885 301.5,103C 308.101,100.78 313.601,96.9466 318,91.5C 321.667,95.1667 325.333,98.8333 329,102.5C 329.667,103.167 329.667,103.833 329,104.5C 311.659,121.386 291.492,125.886 268.5,118C 240.352,103.866 229.852,81.366 237,50.5C 244.237,30.7553 258.07,18.7553 278.5,14.5 Z"/></g>
  <g><path style="opacity:1" fill="#014c57" d="M 196.5,16.5 C 201.975,17.4889 207.642,17.8222 213.5,17.5C 213.5,51.5 213.5,85.5 213.5,119.5C 207.5,119.5 201.5,119.5 195.5,119.5C 195.5,105.167 195.5,90.8333 195.5,76.5C 178.341,75.5033 161.008,75.17 143.5,75.5C 142.504,89.3234 142.171,103.323 142.5,117.5C 137.167,117.5 131.833,117.5 126.5,117.5C 126.5,84.1667 126.5,50.8333 126.5,17.5C 131.833,17.5 137.167,17.5 142.5,17.5C 142.171,31.6766 142.504,45.6766 143.5,59.5C 161.008,59.83 178.341,59.4967 195.5,58.5C 195.171,44.3234 195.504,30.3234 196.5,16.5 Z"/></g>
  <g><path style="opacity:1" fill="#054d58" d="M 397.5,16.5 C 422.737,19.8941 434.57,34.2275 433,59.5C 429.186,75.8134 419.019,85.4801 402.5,88.5C 401.551,87.8476 400.385,87.5143 399,87.5C 388.184,88.2524 377.35,88.7524 366.5,89C 365.515,98.4166 365.182,107.917 365.5,117.5C 360.167,117.5 354.833,117.5 349.5,117.5C 349.5,84.1667 349.5,50.8333 349.5,17.5C 365.675,17.8297 381.675,17.4964 397.5,16.5 Z"/></g>
  <g><path style="opacity:1" fill="#788e93" d="M 195.5,58.5 C 178.341,59.4967 161.008,59.83 143.5,59.5C 143.5,45.1667 143.5,30.8333 143.5,16.5C 137.5,16.5 131.5,16.5 125.5,16.5C 125.5,50.8333 125.5,85.1667 125.5,119.5C 124.502,85.004 124.168,50.3373 124.5,15.5C 131.167,15.5 137.833,15.5 144.5,15.5C 144.5,29.8333 144.5,44.1667 144.5,58.5C 161.5,58.5 178.5,58.5 195.5,58.5 Z"/></g>
  <g><path style="opacity:1" fill="#fafbfb" d="M 367.5,32.5 C 377.172,32.3335 386.839,32.5002 396.5,33C 412.211,37.9229 417.044,48.0895 411,63.5C 408.408,66.7621 405.241,69.2621 401.5,71C 390.244,72.4334 378.91,72.9334 367.5,72.5C 367.5,59.1667 367.5,45.8333 367.5,32.5 Z"/></g>
  <g><path style="opacity:1" fill="#003e49" d="M 143.5,59.5 C 142.504,45.6766 142.171,31.6766 142.5,17.5C 137.167,17.5 131.833,17.5 126.5,17.5C 126.5,50.8333 126.5,84.1667 126.5,117.5C 131.833,117.5 137.167,117.5 142.5,117.5C 142.171,103.323 142.504,89.3234 143.5,75.5C 143.5,90.1667 143.5,104.833 143.5,119.5C 137.5,119.5 131.5,119.5 125.5,119.5C 125.5,85.1667 125.5,50.8333 125.5,16.5C 131.5,16.5 137.5,16.5 143.5,16.5C 143.5,30.8333 143.5,45.1667 143.5,59.5 Z"/></g>
  <g><path style="opacity:1" fill="#063a45" d="M 196.5,16.5 C 202.5,16.5 208.5,16.5 214.5,16.5C 214.832,51.0041 214.498,85.3374 213.5,119.5C 213.5,85.5 213.5,51.5 213.5,17.5C 207.642,17.8222 201.975,17.4889 196.5,16.5 Z"/></g>
  <g><path style="opacity:1" fill="#8c989d" d="M 143.5,75.5 C 161.008,75.17 178.341,75.5033 195.5,76.5C 178.5,76.5 161.5,76.5 144.5,76.5C 144.829,91.0097 144.496,105.343 143.5,119.5C 143.5,104.833 143.5,90.1667 143.5,75.5 Z"/></g>
  <g><path style="opacity:1" fill="#0b424d" d="M 397.5,16.5 C 381.675,17.4964 365.675,17.8297 349.5,17.5C 349.5,50.8333 349.5,84.1667 349.5,117.5C 354.833,117.5 360.167,117.5 365.5,117.5C 365.182,107.917 365.515,98.4166 366.5,89C 377.35,88.7524 388.184,88.2524 399,87.5C 400.385,87.5143 401.551,87.8476 402.5,88.5C 390.864,89.4129 379.197,89.7463 367.5,89.5C 367.5,99.5 367.5,109.5 367.5,119.5C 361.167,119.5 354.833,119.5 348.5,119.5C 348.5,85.1667 348.5,50.8333 348.5,16.5C 364.833,16.5 381.167,16.5 397.5,16.5 Z"/></g>

  <!-- Live Server の注入 script は削除 -->

</svg>