<?xml version="1.0" encoding="UTF-8"?>
<!DOCTYPE svg PUBLIC "-//W3C//DTD SVG 1.1//EN" "http://www.w3.org/Graphics/SVG/1.1/DTD/svg11.dtd">
<svg xmlns="http://www.w3.org/2000/svg" version="1.1" width="468px" height="402px" style="shape-rendering:geometricPrecision; text-rendering:geometricPrecision; image-rendering:optimizeQuality; fill-rule:evenodd; clip-rule:evenodd" xmlns:xlink="http://www.w3.org/1999/xlink">
<g><path style="opacity:1" fill="#fcfcfd" d="M -0.5,-0.5 C 155.5,-0.5 311.5,-0.5 467.5,-0.5C 467.5,133.5 467.5,267.5 467.5,401.5C 311.5,401.5 155.5,401.5 -0.5,401.5C -0.5,267.5 -0.5,133.5 -0.5,-0.5 Z"/></g>
<g><path style="opacity:1" fill="#014c57" d="M 255.5,15.5 C 284.736,15.9117 302.903,30.245 310,58.5C 312.604,89.883 298.771,109.716 268.5,118C 235.919,119.761 216.419,104.594 210,72.5C 209.954,41.2204 225.121,22.2204 255.5,15.5 Z"/></g>
<g><path style="opacity:1" fill="#014b55" d="M 129.5,189.5 C 130.404,188.791 130.737,187.791 130.5,186.5C 142.505,186.667 154.505,186.5 166.5,186C 168.032,183.966 169.365,181.799 170.5,179.5C 170.376,178.893 170.043,178.56 169.5,178.5C 184.238,154.027 199.238,129.694 214.5,105.5C 220.717,113.04 228.384,118.706 237.5,122.5C 221.45,148.1 205.783,173.933 190.5,200C 206.034,226.233 221.701,252.4 237.5,278.5C 228.588,282.365 221.088,288.031 215,295.5C 198.5,269 182,242.5 165.5,216C 153.505,215.5 141.505,215.333 129.5,215.5C 130.688,206.806 130.688,198.139 129.5,189.5 Z"/></g>
<g><path style="opacity:1" fill="#014c56" d="M 61.5,150.5 C 91.6179,148.16 111.451,161.16 121,189.5C 125.055,216.389 115.222,236.222 91.5,249C 64.7794,257.982 43.6127,250.816 28,227.5C 15.4516,201.525 19.9516,179.025 41.5,160C 47.8737,155.977 54.5404,152.811 61.5,150.5 Z"/></g>
<g><path style="opacity:1" fill="#014c57" d="M 367.5,150.5 C 398.389,148.235 418.223,161.902 427,191.5C 430.484,222.73 417.317,242.897 387.5,252C 350.957,254.544 330.624,237.544 326.5,201C 329.105,174.92 342.771,158.086 367.5,150.5 Z"/></g>
<g><path style="opacity:1" fill="#012431" d="M 169.5,178.5 C 170.043,178.56 170.376,178.893 170.5,179.5C 169.365,181.799 168.032,183.966 166.5,186C 154.505,186.5 142.505,186.667 130.5,186.5C 130.737,187.791 130.404,188.791 129.5,189.5C 129.67,188.178 129.337,187.011 128.5,186C 140.833,185.667 153.167,185.333 165.5,185C 167.058,182.948 168.392,180.781 169.5,178.5 Z"/></g>
<g><path style="opacity:1" fill="#024a55" d="M 324.5,230.5 C 330.065,238.736 336.732,246.07 344.5,252.5C 332.181,268.149 319.514,283.483 306.5,298.5C 299.97,290.904 292.303,284.737 283.5,280C 297.378,263.627 311.045,247.127 324.5,230.5 Z"/></g>
<g><path style="opacity:1" fill="#004c57" d="M 251.5,283.5 C 283.092,282.939 302.592,297.939 310,328.5C 311.832,360.314 297.332,379.814 266.5,387C 234.019,388.005 214.852,372.505 209,340.5C 208.634,310.532 222.801,291.532 251.5,283.5 Z"/></g>
</svg>
